<?xml version="1.0" encoding="UTF-8"?>
<!-- Generator: visioncortex VTracer 0.6.12 -->
<svg version="1.1" xmlns="http://www.w3.org/2000/svg" width="651" height="342">
<path d="M0,0 L49,0 L52,9 L54,16 L61,45 L71,87 L75,103 L77,112 L78,111 L82,96 L89,69 L93,53 L100,25 L106,3 L108,0 L153,0 L156,8 L160,26 L166,52 L171,75 L173,84 L176,98 L178,96 L184,82 L188,70 L190,56 L194,36 L200,0 L301,0 L316,4 L331,12 L340,19 L340,21 L342,21 L351,33 L357,45 L362,64 L362,85 L359,97 L353,112 L344,125 L332,137 L328,141 L338,154 L341,157 L345,162 L345,164 L347,164 L356,176 L365,187 L365,189 L362,190 L295,190 L290,188 L272,170 L265,162 L254,151 L258,149 L278,148 L290,145 L304,138 L306,136 L315,133 L326,125 L330,123 L332,119 L340,109 L346,96 L349,83 L349,63 L344,47 L338,36 L329,26 L316,18 L305,14 L295,12 L271,12 L255,16 L245,21 L243,21 L243,12 L211,12 L208,28 L200,72 L193,93 L185,108 L174,122 L169,127 L167,127 L167,129 L151,141 L142,146 L139,139 L133,112 L128,87 L127,78 L125,78 L124,89 L118,116 L108,157 L106,163 L103,166 L75,176 L47,183 L45,181 L40,162 L36,146 L30,124 L25,104 L21,89 L9,41 L5,25 L2,14 L-1,1 Z M126,76 Z M77,114 Z M77,116 Z " fill="#F8FBFE" transform="translate(134,20)"/>
<path d="M0,0 L32,0 L33,1 L32,10 L44,4 L60,0 L84,0 L100,4 L114,11 L125,21 L132,32 L137,44 L139,52 L139,72 L136,85 L129,99 L122,108 L117,113 L109,120 L100,125 L96,124 L104,114 L110,103 L113,94 L114,90 L114,83 L113,82 L107,82 L96,88 L91,89 L82,94 L78,98 L74,99 L64,99 L59,98 L59,96 L55,94 L54,91 L52,91 L48,85 L48,66 L50,61 L52,61 L53,58 L61,54 L74,51 L75,48 L91,40 L96,35 L94,29 L89,28 L80,24 L66,22 L53,23 L44,25 L30,32 L24,37 L16,47 L14,52 L12,52 L9,62 L7,67 L2,88 L-3,99 L-8,106 L-13,111 L-24,121 L-29,124 L-30,126 L-36,129 L-41,133 L-43,133 L-43,135 L-49,138 L-51,138 L-51,140 L-65,147 L-77,154 L-87,158 L-97,162 L-114,168 L-134,174 L-156,179 L-174,182 L-178,183 L-205,185 L-247,185 L-249,183 L-224,180 L-192,176 L-184,174 L-171,172 L-155,169 L-130,162 L-108,154 L-106,154 L-105,152 L-89,145 L-71,135 L-71,133 L-68,134 L-56,126 L-46,118 L-44,118 L-44,116 L-36,109 L-25,94 L-17,77 L-12,61 L-4,17 L-1,1 Z " fill="#4AA3E8" transform="translate(345,31)"/>
<path d="M0,0 L20,1 L23,11 L27,32 L32,55 L34,47 L37,24 L40,5 L42,0 L75,1 L81,3 L87,8 L90,16 L90,30 L88,40 L85,49 L81,54 L70,59 L42,60 L32,59 L29,60 L15,59 L14,58 L13,49 L-6,50 L-10,58 L-13,60 L-69,60 L-73,59 L-68,24 L-65,2 L-64,1 L-22,1 L-20,5 L-22,5 L-23,14 L-48,14 L-49,23 L-29,22 L-26,26 L-28,35 L-29,37 L-51,37 L-53,46 L-28,46 L-27,49 L-27,52 L-23,45 L-21,40 L-15,28 L-14,24 L-12,24 L-10,18 L-2,2 Z M56,14 L52,39 L52,45 L53,46 L64,46 L69,42 L72,33 L73,20 L72,17 L67,14 Z M7,18 L3,26 L0,32 L0,35 L9,35 L10,34 L9,21 Z " fill="#4AA3E8" transform="translate(486,262)"/>
<path d="M0,0 L10,1 L20,3 L58,7 L105,9 L434,9 L446,16 L450,18 L450,20 L452,20 L452,22 L165,22 L121,21 L88,19 L40,13 L14,7 L0,2 Z " fill="#E3F0FB" transform="translate(81,216)"/>
<path d="M0,0 L15,0 L18,38 L23,24 L27,13 L32,1 L46,1 L47,2 L49,27 L49,38 L51,38 L53,29 L63,1 L64,0 L80,0 L77,9 L69,30 L62,48 L60,52 L58,58 L55,59 L38,58 L36,32 L35,30 L25,58 L6,58 L5,56 L0,12 L-1,4 Z " fill="#ECF5FC" transform="translate(21,263)"/>
<path d="M0,0 L36,0 L42,2 L47,8 L48,10 L48,23 L45,30 L40,35 L37,36 L38,40 L42,49 L45,55 L47,57 L46,58 L28,59 L26,58 L23,51 L19,41 L19,39 L12,39 L10,56 L9,58 L-7,59 L-9,58 L-7,39 L-1,1 Z M15,13 L14,26 L26,26 L30,23 L30,15 L27,13 Z " fill="#4AA3E8" transform="translate(366,263)"/>
<path d="M0,0 L16,0 L20,6 L25,19 L30,31 L30,33 L32,33 L33,20 L36,1 L37,0 L51,0 L52,2 L48,28 L47,36 L44,56 L43,58 L27,58 L21,46 L16,35 L16,31 L14,30 L12,25 L10,43 L7,58 L-8,58 L-7,46 L-5,33 L-3,19 Z M31,34 Z " fill="#ECF5FC" transform="translate(202,263)"/>
<path d="M0,0 L34,0 L41,3 L45,8 L46,19 L45,26 L38,34 L34,37 L43,56 L43,58 L25,59 L20,45 L18,38 L10,38 L8,58 L-9,58 L-1,2 Z M16,12 L13,14 L12,27 L26,26 L29,21 L30,17 L28,13 L26,12 Z " fill="#ECF5FC" transform="translate(103,263)"/>
<path d="M0,0 L15,0 L16,5 L13,22 L30,21 L32,8 L34,0 L49,0 L50,3 L44,43 L42,56 L41,58 L26,58 L27,45 L29,35 L13,35 L11,38 L8,58 L5,59 L-8,58 L-8,50 L-6,41 Z " fill="#EAF4FC" transform="translate(306,263)"/>
<path d="M0,0 L41,0 L42,3 L40,13 L14,13 L13,23 L36,23 L34,35 L11,35 L10,44 L9,46 L35,45 L34,56 L33,58 L-8,58 L-6,40 Z " fill="#EDF6FC" transform="translate(156,263)"/>
<path d="M0,0 L16,0 L19,4 L23,17 L25,21 L33,8 L38,0 L56,0 L55,5 L48,16 L39,29 L38,32 L36,32 L34,37 L31,47 L30,56 L28,59 L12,59 L12,50 L13,45 L13,36 L8,24 L3,11 L0,5 Z " fill="#4AA3E8" transform="translate(575,263)"/>
<path d="M0,0 L23,0 L27,2 L25,13 L20,14 L14,13 L6,13 L0,14 L-2,19 L-4,26 L-5,36 L-3,44 L4,45 L20,45 L21,50 L19,57 L7,59 L-2,59 L-11,57 L-16,54 L-16,52 L-18,52 L-21,44 L-22,33 L-21,23 L-17,12 L-11,4 Z " fill="#EBF4FC" transform="translate(275,263)"/>
<path d="M0,0 L1,0 L0,9 L-6,33 L-36,33 L-43,32 L-38,27 L-29,19 L-27,19 L-27,17 L-10,5 Z " fill="#EDF6FC" transform="translate(368,177)"/>
<path d="M0,0 Z " fill="#4AA3E8" transform="translate(84,215)"/>
<path d="M0,0 Z " fill="#4AA3E8" transform="translate(416,209)"/>
<path d="M0,0 Z " fill="#4AA3E8" transform="translate(331,199)"/>
<path d="M0,0 Z " fill="#4AA3E8" transform="translate(488,193)"/>
<path d="M0,0 Z " fill="#4AA3E8" transform="translate(481,183)"/>
<path d="M0,0 Z " fill="#4AA3E8" transform="translate(359,180)"/>
<path d="M0,0 Z " fill="#4AA3E8" transform="translate(389,175)"/>
<path d="M0,0 Z " fill="#4AA3E8" transform="translate(384,172)"/>
<path d="M0,0 Z " fill="#4AA3E8" transform="translate(444,117)"/>
<path d="M0,0 Z " fill="#4AA3E8" transform="translate(485,52)"/>
</svg>
